<svg width="23" height="16" viewBox="0 0 23 16" fill="none" xmlns="http://www.w3.org/2000/svg">
<path d="M1.74414 7C1.19186 7 0.744141 7.44772 0.744141 8C0.744141 8.55228 1.19186 9 1.74414 9V7ZM22.4512 8.70711C22.8418 8.31658 22.8418 7.68342 22.4512 7.29289L16.0873 0.928932C15.6968 0.538408 15.0636 0.538408 14.6731 0.928932C14.2825 1.31946 14.2825 1.95262 14.6731 2.34315L20.3299 8L14.6731 13.6569C14.2825 14.0474 14.2825 14.6805 14.6731 15.0711C15.0636 15.4616 15.6968 15.4616 16.0873 15.0711L22.4512 8.70711ZM1.74414 9H21.7441V7H1.74414V9Z" fill="#23262F"/>
</svg>
